<?xml version="1.0" encoding="UTF-8" standalone="no"?>
<!-- Generator: Adobe Illustrator 16.0.0, SVG Export Plug-In . SVG Version: 6.00 Build 0)  -->

<svg
   xmlns:dc="http://purl.org/dc/elements/1.1/"
   xmlns:cc="http://creativecommons.org/ns#"
   xmlns:rdf="http://www.w3.org/1999/02/22-rdf-syntax-ns#"
   xmlns:svg="http://www.w3.org/2000/svg"
   xmlns="http://www.w3.org/2000/svg"
   xmlns:sodipodi="http://sodipodi.sourceforge.net/DTD/sodipodi-0.dtd"
   xmlns:inkscape="http://www.inkscape.org/namespaces/inkscape"
   version="1.1"
   id="Capa_1"
   x="0px"
   y="0px"
   width="460.369px"
   height="460.369px"
   viewBox="0 0 460.369 460.369"
   style="enable-background:new 0 0 460.369 460.369;"
   xml:space="preserve"
   sodipodi:docname="thumbnail.svg"
   inkscape:version="0.92.4 (5da689c313, 2019-01-14)"><metadata
   id="metadata49"><rdf:RDF><cc:Work
       rdf:about=""><dc:format>image/svg+xml</dc:format><dc:type
         rdf:resource="http://purl.org/dc/dcmitype/StillImage" /><dc:title /></cc:Work></rdf:RDF></metadata><defs
   id="defs47" /><sodipodi:namedview
   pagecolor="#ffffff"
   bordercolor="#666666"
   borderopacity="1"
   objecttolerance="10"
   gridtolerance="10"
   guidetolerance="10"
   inkscape:pageopacity="0"
   inkscape:pageshadow="2"
   inkscape:window-width="1199"
   inkscape:window-height="1034"
   id="namedview45"
   showgrid="false"
   inkscape:zoom="1.0905292"
   inkscape:cx="395.1363"
   inkscape:cy="199.07"
   inkscape:window-x="133"
   inkscape:window-y="250"
   inkscape:window-maximized="1"
   inkscape:current-layer="g12" />
<g
   id="g12"
   transform="translate(3.667944,-87.113671)">
	<path
   d="M 145.94531 5.3457031 C 133.55081 5.2335332 112.5718 7.1100936 111.06055 10.652344 C 91.251544 57.039346 79.391154 115.61745 77.726562 176.5625 C 77.234562 180.7285 79.574172 184.71336 83.451172 186.31836 L 113.72656 191 C 117.59756 192.604 118.78455 187.67703 121.1543 182.7793 C 132.50792 156.72459 134.78049 151.84372 144.30664 131.82422 L 201.53516 157.05273 L 199.54297 170.84766 L 193.50781 212.63086 L 177.54102 311.9668 L 101.16992 311.9668 L 53.535156 311.9668 C 48.361156 311.9668 44.166016 316.15994 44.166016 321.33594 L 44.166016 363.88672 C 44.166016 369.06072 48.361156 373.25586 53.535156 373.25586 L 414.16797 373.25586 C 419.34197 373.25586 423.53711 369.06072 423.53711 363.88672 L 423.53711 321.33594 C 423.53711 316.15994 419.34197 311.9668 414.16797 311.9668 L 394.84375 311.9668 L 394.84375 305.83984 C 394.84375 303.25284 392.74116 301.0774 390.1543 301.1543 L 368.34375 301.1543 L 368.34375 226.12109 L 370.625 227.06445 C 371.799 227.54945 373.01203 227.7793 374.20703 227.7793 C 377.88303 227.7793 381.37319 225.60019 382.86719 221.99219 L 396.20312 189.78516 C 397.15213 187.48816 397.15217 184.90928 396.20117 182.61328 C 395.25017 180.31728 393.42786 178.49592 391.13086 177.54492 L 167.85547 84.611328 C 175.25747 70.495328 181.908 56.115094 187.625 41.871094 C 189.537 37.105094 187.25964 31.687609 182.51562 29.724609 L 154.43945 6.1328125 C 153.25445 5.6415625 150.07681 5.3830931 145.94531 5.3457031 z M 139.83984 22.048828 A 11.462325 11.462325 0 0 1 151.30273 33.511719 A 11.462325 11.462325 0 0 1 139.83984 44.974609 A 11.462325 11.462325 0 0 1 128.37891 33.511719 A 11.462325 11.462325 0 0 1 139.83984 22.048828 z M 109.12109 132.08789 A 11.003832 11.003832 0 0 1 120.125 143.0918 A 11.003832 11.003832 0 0 1 109.12109 154.0957 A 11.003832 11.003832 0 0 1 98.117188 143.0918 A 11.003832 11.003832 0 0 1 109.12109 132.08789 z M 221.12305 165.16406 L 239.86523 172.92383 L 217.24219 192.04102 L 221.12305 165.16406 z M 270.28125 185.51758 L 349.60156 218.36133 L 349.60156 301.1543 L 327.79297 301.1543 C 325.20297 301.1543 323.10547 303.25284 323.10547 305.83984 L 323.10547 311.9668 L 289.51562 311.9668 L 274.19336 212.63086 L 270.28125 185.51758 z M 250.3125 190.99805 L 257.05469 237.69336 L 224.125 213.13086 L 250.3125 190.99805 z M 211.82227 229.58594 L 246.0625 255.12891 L 204.30078 281.68164 L 211.82227 229.58594 z M 261.65625 269.56445 L 265.88086 297.74023 L 217.51172 297.63281 L 261.65625 269.56445 z "
   transform="translate(-3.667944,87.113671)"
   id="path10" />
</g>
<g
   id="g14">
</g>
<g
   id="g16">
</g>
<g
   id="g18">
</g>
<g
   id="g20">
</g>
<g
   id="g22">
</g>
<g
   id="g24">
</g>
<g
   id="g26">
</g>
<g
   id="g28">
</g>
<g
   id="g30">
</g>
<g
   id="g32">
</g>
<g
   id="g34">
</g>
<g
   id="g36">
</g>
<g
   id="g38">
</g>
<g
   id="g40">
</g>
<g
   id="g42">
</g>
<text
   xml:space="preserve"
   style="font-style:normal;font-weight:normal;font-size:118.2915802px;line-height:1.25;font-family:sans-serif;letter-spacing:0px;word-spacing:0px;fill:#000000;fill-opacity:1;stroke:none;stroke-width:2.95728946"
   x="32.927002"
   y="542.15161"
   id="text53"
   transform="scale(1.1894952,0.84069278)"><tspan
     sodipodi:role="line"
     id="tspan51"
     x="32.927002"
     y="542.15161"
     style="font-style:normal;font-variant:normal;font-weight:normal;font-stretch:normal;font-family:impact;-inkscape-font-specification:impact;stroke-width:2.95728946">P.U.M.P.</tspan></text>

</svg>